# xmcd
#
# Track frame offsets:
#	150
#	8051
#	16339
#	29027
#	40681
#	60327
#	88452
#	99851
#	130878
#	143315
#	154516
#	165952
#	190839
#	207963
#	217103
#	239587
#
# Disc length: 3305
#
# Revision: 3
# Processed by: cddbd v1.5.1PL0 Copyright (c) Steve Scherf et al.
# Submitted via: cddb2pg 0.002
# Normalized: r2:DSETVAR1
#
DISCID=cb0ce710
DTITLE=Various Artist - Last of the Mohicans
DYEAR=1900
DGENRE=
TTITLE0=Trevor Jones - Main Title
TTITLE1=Trevor Jones - Elk Hunt
TTITLE2=Trevor Jones - The Kiss
TTITLE3=Trevor Jones - The Glade Part II
TTITLE4=Trevor Jones - Fort Battle
TTITLE5=Trevor Jones - Promentory
TTITLE6=Trevor Jones - Monro's Office-Stockade
TTITLE7=Trevor Jones - Massacre-Canoes
TTITLE8=Trevor Jones - Top Of The World
TTITLE9=Randy Edelman - The Courier
TTITLE10=Randy Edelman - Cora
TTITLE11=Randy Edelman - River Walk And Discovery
TTITLE12=Randy Edelman - Parlay
TTITLE13=Randy Edelman - The British Arrival
TTITLE14=Randy Edelman - Pieces Of A Story
TTITLE15=Clannad - I Will Find You
EXTD=
EXTT0=
EXTT1=
EXTT2=
EXTT3=
EXTT4=
EXTT5=
EXTT6=
EXTT7=
EXTT8=
EXTT9=
EXTT10=
EXTT11=
EXTT12=
EXTT13=
EXTT14=
EXTT15=
PLAYORDER=
